<mxfile host="Electron" modified="2024-07-01T10:11:54.743Z" agent="Mozilla/5.0 (Macintosh; Intel Mac OS X 10_15_7) AppleWebKit/537.36 (KHTML, like Gecko) draw.io/24.6.4 Chrome/124.0.6367.207 Electron/30.0.6 Safari/537.36" etag="iWQn8jb3AVeJHvqSHw9v" version="24.6.4" type="device" pages="3">
  <diagram id="T_oXeeGYQuaLfQepJVp7" name="Page-1">
    <mxGraphModel dx="585" dy="1518" grid="1" gridSize="10" guides="1" tooltips="1" connect="1" arrows="1" fold="1" page="1" pageScale="1" pageWidth="827" pageHeight="1169" math="0" shadow="0">
      <root>
        <mxCell id="0" />
        <mxCell id="1" parent="0" />
        <mxCell id="7" style="edgeStyle=none;html=1;entryX=0;entryY=0.5;entryDx=0;entryDy=0;fontFamily=Comic Sans MS;shadow=1;flowAnimation=1;sketch=1;curveFitting=1;jiggle=2;sketchStyle=comic;" parent="1" source="3" edge="1">
          <mxGeometry relative="1" as="geometry">
            <mxPoint x="270" y="65" as="targetPoint" />
          </mxGeometry>
        </mxCell>
        <mxCell id="3" value="Internet" style="ellipse;shape=cloud;whiteSpace=wrap;html=1;shadow=1;fontFamily=Comic Sans MS;sketch=1;curveFitting=1;jiggle=2;" parent="1" vertex="1">
          <mxGeometry x="110" y="25" width="120" height="80" as="geometry" />
        </mxCell>
        <mxCell id="6" style="edgeStyle=none;html=1;entryX=0.067;entryY=0.525;entryDx=0;entryDy=0;entryPerimeter=0;shadow=1;flowAnimation=1;sketch=1;curveFitting=1;jiggle=2;sketchStyle=comic;" parent="1" source="4" target="3" edge="1">
          <mxGeometry relative="1" as="geometry" />
        </mxCell>
        <mxCell id="4" value="" style="verticalLabelPosition=bottom;verticalAlign=top;html=1;shadow=1;dashed=0;strokeWidth=1;shape=mxgraph.android.phone2;strokeColor=#666666;sketch=1;curveFitting=1;jiggle=2;fillColor=none;fontColor=#333333;" parent="1" vertex="1">
          <mxGeometry x="20" y="20" width="60" height="90" as="geometry" />
        </mxCell>
        <mxCell id="5" value="SuperApp" style="text;html=1;align=center;verticalAlign=middle;resizable=0;points=[];autosize=1;strokeColor=none;fillColor=none;fontFamily=Comic Sans MS;shadow=1;" parent="1" vertex="1">
          <mxGeometry x="10" y="45" width="80" height="30" as="geometry" />
        </mxCell>
        <mxCell id="Lp_O56hkFmglkbDpRAC8-7" value="" style="endArrow=none;html=1;rounded=0;sketch=1;hachureGap=4;jiggle=2;curveFitting=1;fontFamily=Architects Daughter;fontSource=https%3A%2F%2Ffonts.googleapis.com%2Fcss%3Ffamily%3DArchitects%2BDaughter;" parent="1" edge="1">
          <mxGeometry width="50" height="50" relative="1" as="geometry">
            <mxPoint x="250" y="902" as="sourcePoint" />
            <mxPoint x="250" y="160" as="targetPoint" />
          </mxGeometry>
        </mxCell>
        <mxCell id="Lp_O56hkFmglkbDpRAC8-8" value="" style="endArrow=none;html=1;rounded=0;sketch=1;hachureGap=4;jiggle=2;curveFitting=1;fontFamily=Architects Daughter;fontSource=https%3A%2F%2Ffonts.googleapis.com%2Fcss%3Ffamily%3DArchitects%2BDaughter;" parent="1" edge="1">
          <mxGeometry width="50" height="50" relative="1" as="geometry">
            <mxPoint x="580" y="882" as="sourcePoint" />
            <mxPoint x="580" y="160" as="targetPoint" />
          </mxGeometry>
        </mxCell>
        <mxCell id="Lp_O56hkFmglkbDpRAC8-12" value="&lt;b&gt;Use Case&lt;/b&gt;" style="text;html=1;align=center;verticalAlign=middle;whiteSpace=wrap;rounded=1;fontFamily=Architects Daughter;fontSource=https%3A%2F%2Ffonts.googleapis.com%2Fcss%3Ffamily%3DArchitects%2BDaughter;fontStyle=0;strokeColor=default;sketch=1;curveFitting=1;jiggle=2;shadow=1;glass=0;" parent="1" vertex="1">
          <mxGeometry x="80" y="170" width="60" height="30" as="geometry" />
        </mxCell>
        <mxCell id="Lp_O56hkFmglkbDpRAC8-13" value="&lt;b&gt;Solution&lt;/b&gt;" style="text;html=1;align=center;verticalAlign=middle;whiteSpace=wrap;rounded=1;fontFamily=Architects Daughter;fontSource=https%3A%2F%2Ffonts.googleapis.com%2Fcss%3Ffamily%3DArchitects%2BDaughter;strokeColor=default;sketch=1;curveFitting=1;jiggle=2;shadow=1;" parent="1" vertex="1">
          <mxGeometry x="380" y="170" width="60" height="30" as="geometry" />
        </mxCell>
        <mxCell id="Lp_O56hkFmglkbDpRAC8-15" value="&lt;b&gt;Impact Result&lt;/b&gt;" style="text;html=1;align=center;verticalAlign=middle;whiteSpace=wrap;rounded=1;fontFamily=Architects Daughter;fontSource=https%3A%2F%2Ffonts.googleapis.com%2Fcss%3Ffamily%3DArchitects%2BDaughter;strokeColor=default;sketch=1;curveFitting=1;jiggle=2;shadow=1;" parent="1" vertex="1">
          <mxGeometry x="700" y="170" width="80" height="30" as="geometry" />
        </mxCell>
        <mxCell id="Lp_O56hkFmglkbDpRAC8-16" value="SMS service" style="rounded=1;whiteSpace=wrap;html=1;sketch=1;curveFitting=1;jiggle=2;shadow=1;glass=0;fontFamily=Comic Sans MS;fillColor=#f8cecc;strokeColor=#b85450;" parent="1" vertex="1">
          <mxGeometry x="630" y="35" width="120" height="60" as="geometry" />
        </mxCell>
        <mxCell id="Lp_O56hkFmglkbDpRAC8-18" value="Taximail" style="ellipse;shape=cloud;whiteSpace=wrap;html=1;shadow=1;fontFamily=Comic Sans MS;sketch=1;curveFitting=1;jiggle=2;fillColor=#dae8fc;strokeColor=#6c8ebf;" parent="1" vertex="1">
          <mxGeometry x="780" y="21" width="120" height="80" as="geometry" />
        </mxCell>
        <mxCell id="Lp_O56hkFmglkbDpRAC8-22" style="edgeStyle=orthogonalEdgeStyle;rounded=0;hachureGap=4;orthogonalLoop=1;jettySize=auto;html=1;fontFamily=Architects Daughter;fontSource=https%3A%2F%2Ffonts.googleapis.com%2Fcss%3Ffamily%3DArchitects%2BDaughter;flowAnimation=1;shadow=1;" parent="1" source="Lp_O56hkFmglkbDpRAC8-19" target="Lp_O56hkFmglkbDpRAC8-16" edge="1">
          <mxGeometry relative="1" as="geometry" />
        </mxCell>
        <mxCell id="Lp_O56hkFmglkbDpRAC8-19" value="Profile" style="rounded=1;whiteSpace=wrap;html=1;sketch=1;curveFitting=1;jiggle=2;shadow=1;glass=0;fontFamily=Comic Sans MS;fillColor=#fff2cc;strokeColor=#d6b656;" parent="1" vertex="1">
          <mxGeometry x="440" y="35" width="120" height="60" as="geometry" />
        </mxCell>
        <mxCell id="Lp_O56hkFmglkbDpRAC8-21" style="edgeStyle=orthogonalEdgeStyle;rounded=0;hachureGap=4;orthogonalLoop=1;jettySize=auto;html=1;entryX=0;entryY=0.5;entryDx=0;entryDy=0;fontFamily=Architects Daughter;fontSource=https%3A%2F%2Ffonts.googleapis.com%2Fcss%3Ffamily%3DArchitects%2BDaughter;flowAnimation=1;shadow=1;" parent="1" source="Lp_O56hkFmglkbDpRAC8-20" target="Lp_O56hkFmglkbDpRAC8-19" edge="1">
          <mxGeometry relative="1" as="geometry" />
        </mxCell>
        <mxCell id="Lp_O56hkFmglkbDpRAC8-20" value="Imperva" style="ellipse;shape=cloud;whiteSpace=wrap;html=1;shadow=1;fontFamily=Comic Sans MS;sketch=1;curveFitting=1;jiggle=2;fillColor=#f5f5f5;fontColor=#333333;strokeColor=#666666;" parent="1" vertex="1">
          <mxGeometry x="260" y="25" width="120" height="80" as="geometry" />
        </mxCell>
        <mxCell id="Lp_O56hkFmglkbDpRAC8-23" style="edgeStyle=orthogonalEdgeStyle;rounded=0;hachureGap=4;orthogonalLoop=1;jettySize=auto;html=1;entryX=0.16;entryY=0.55;entryDx=0;entryDy=0;entryPerimeter=0;fontFamily=Architects Daughter;fontSource=https%3A%2F%2Ffonts.googleapis.com%2Fcss%3Ffamily%3DArchitects%2BDaughter;flowAnimation=1;shadow=1;" parent="1" source="Lp_O56hkFmglkbDpRAC8-16" target="Lp_O56hkFmglkbDpRAC8-18" edge="1">
          <mxGeometry relative="1" as="geometry" />
        </mxCell>
        <mxCell id="Lp_O56hkFmglkbDpRAC8-24" style="edgeStyle=orthogonalEdgeStyle;rounded=0;hachureGap=4;orthogonalLoop=1;jettySize=auto;html=1;entryX=0.583;entryY=0.022;entryDx=0;entryDy=0;entryPerimeter=0;fontFamily=Architects Daughter;fontSource=https%3A%2F%2Ffonts.googleapis.com%2Fcss%3Ffamily%3DArchitects%2BDaughter;flowAnimation=1;shadow=1;" parent="1" source="Lp_O56hkFmglkbDpRAC8-18" target="4" edge="1">
          <mxGeometry relative="1" as="geometry">
            <Array as="points">
              <mxPoint x="840" y="-30" />
              <mxPoint x="55" y="-30" />
            </Array>
          </mxGeometry>
        </mxCell>
        <mxCell id="OAPe3arIS8HmJjKxbQcs-9" value="1. Register from origin country (see content, Privilege) not only thailand&lt;div&gt;2. Login from any(Whitelist) country&lt;br&gt;3. Resend from any(Whitelist) country&lt;/div&gt;&lt;div&gt;4. Forget pin from any country&lt;/div&gt;" style="text;html=1;align=left;verticalAlign=middle;whiteSpace=wrap;rounded=0;fontFamily=Architects Daughter;fontSource=https%3A%2F%2Ffonts.googleapis.com%2Fcss%3Ffamily%3DArchitects%2BDaughter;" vertex="1" parent="1">
          <mxGeometry x="30" y="290" width="180" height="10" as="geometry" />
        </mxCell>
        <mxCell id="OAPe3arIS8HmJjKxbQcs-10" value="1. Block all&lt;div&gt;2. Whitelist on Trustlist&lt;/div&gt;&lt;div&gt;3. Limit Quota&lt;/div&gt;&lt;div&gt;4. Upgrade Recaptcha 3.0 + CloudArmor&lt;/div&gt;&lt;div&gt;&lt;br&gt;&lt;/div&gt;&lt;div&gt;&lt;br&gt;&lt;/div&gt;" style="text;html=1;align=left;verticalAlign=middle;whiteSpace=wrap;rounded=0;fontFamily=Architects Daughter;fontSource=https%3A%2F%2Ffonts.googleapis.com%2Fcss%3Ffamily%3DArchitects%2BDaughter;" vertex="1" parent="1">
          <mxGeometry x="310" y="270" width="180" height="10" as="geometry" />
        </mxCell>
      </root>
    </mxGraphModel>
  </diagram>
  <diagram id="aI_2XoHN_HC4b0FDy_NK" name="Page-2">
    <mxGraphModel dx="668" dy="810" grid="1" gridSize="10" guides="1" tooltips="1" connect="1" arrows="1" fold="1" page="1" pageScale="1" pageWidth="827" pageHeight="1169" math="0" shadow="0">
      <root>
        <mxCell id="0" />
        <mxCell id="1" parent="0" />
        <mxCell id="oC6WpuPc2i9pV71od6hG-4" value="" style="shape=parallelogram;perimeter=parallelogramPerimeter;whiteSpace=wrap;html=1;fixedSize=1;sketch=1;hachureGap=4;jiggle=2;curveFitting=1;fontFamily=Architects Daughter;fontSource=https%3A%2F%2Ffonts.googleapis.com%2Fcss%3Ffamily%3DArchitects%2BDaughter;fillColor=#f8cecc;strokeColor=#b85450;" vertex="1" parent="1">
          <mxGeometry x="210" y="700" width="380" height="120" as="geometry" />
        </mxCell>
        <mxCell id="oC6WpuPc2i9pV71od6hG-3" value="" style="shape=cylinder3;whiteSpace=wrap;html=1;boundedLbl=1;backgroundOutline=1;size=15;sketch=1;hachureGap=4;jiggle=2;curveFitting=1;fontFamily=Architects Daughter;fontSource=https%3A%2F%2Ffonts.googleapis.com%2Fcss%3Ffamily%3DArchitects%2BDaughter;fillColor=#e1d5e7;strokeColor=#9673a6;" vertex="1" parent="1">
          <mxGeometry x="240" y="1090" width="300" height="160" as="geometry" />
        </mxCell>
        <mxCell id="GuvzhFM52KRBuSh5K_fH-20" style="edgeStyle=orthogonalEdgeStyle;rounded=0;sketch=1;hachureGap=4;jiggle=2;curveFitting=1;orthogonalLoop=1;jettySize=auto;html=1;entryX=0.5;entryY=0;entryDx=0;entryDy=0;fontFamily=Architects Daughter;fontSource=https%3A%2F%2Ffonts.googleapis.com%2Fcss%3Ffamily%3DArchitects%2BDaughter;" edge="1" parent="1" source="GuvzhFM52KRBuSh5K_fH-18" target="GuvzhFM52KRBuSh5K_fH-19">
          <mxGeometry relative="1" as="geometry" />
        </mxCell>
        <mxCell id="GuvzhFM52KRBuSh5K_fH-18" value="Start" style="rounded=1;whiteSpace=wrap;html=1;sketch=1;hachureGap=4;jiggle=2;curveFitting=1;fontFamily=Architects Daughter;fontSource=https%3A%2F%2Ffonts.googleapis.com%2Fcss%3Ffamily%3DArchitects%2BDaughter;" vertex="1" parent="1">
          <mxGeometry x="330" y="585" width="120" height="60" as="geometry" />
        </mxCell>
        <mxCell id="GuvzhFM52KRBuSh5K_fH-21" style="edgeStyle=orthogonalEdgeStyle;rounded=0;sketch=1;hachureGap=4;jiggle=2;curveFitting=1;orthogonalLoop=1;jettySize=auto;html=1;fontFamily=Architects Daughter;fontSource=https%3A%2F%2Ffonts.googleapis.com%2Fcss%3Ffamily%3DArchitects%2BDaughter;" edge="1" parent="1" source="GuvzhFM52KRBuSh5K_fH-19" target="GuvzhFM52KRBuSh5K_fH-22">
          <mxGeometry relative="1" as="geometry">
            <mxPoint x="390" y="880" as="targetPoint" />
          </mxGeometry>
        </mxCell>
        <mxCell id="GuvzhFM52KRBuSh5K_fH-19" value="5 time/24 hrs" style="rounded=1;whiteSpace=wrap;html=1;sketch=1;hachureGap=4;jiggle=2;curveFitting=1;fontFamily=Architects Daughter;fontSource=https%3A%2F%2Ffonts.googleapis.com%2Fcss%3Ffamily%3DArchitects%2BDaughter;" vertex="1" parent="1">
          <mxGeometry x="330" y="740" width="120" height="60" as="geometry" />
        </mxCell>
        <mxCell id="GuvzhFM52KRBuSh5K_fH-25" style="edgeStyle=orthogonalEdgeStyle;rounded=0;sketch=1;hachureGap=4;jiggle=2;curveFitting=1;orthogonalLoop=1;jettySize=auto;html=1;entryX=0.5;entryY=0;entryDx=0;entryDy=0;fontFamily=Architects Daughter;fontSource=https%3A%2F%2Ffonts.googleapis.com%2Fcss%3Ffamily%3DArchitects%2BDaughter;fillColor=#d5e8d4;strokeColor=#82b366;" edge="1" parent="1" source="GuvzhFM52KRBuSh5K_fH-22" target="GuvzhFM52KRBuSh5K_fH-23">
          <mxGeometry relative="1" as="geometry" />
        </mxCell>
        <mxCell id="GuvzhFM52KRBuSh5K_fH-27" value="Success" style="edgeLabel;html=1;align=center;verticalAlign=middle;resizable=0;points=[];sketch=1;hachureGap=4;jiggle=2;curveFitting=1;fontFamily=Architects Daughter;fontSource=https%3A%2F%2Ffonts.googleapis.com%2Fcss%3Ffamily%3DArchitects%2BDaughter;" vertex="1" connectable="0" parent="GuvzhFM52KRBuSh5K_fH-25">
          <mxGeometry x="0.3333" y="-2" relative="1" as="geometry">
            <mxPoint as="offset" />
          </mxGeometry>
        </mxCell>
        <mxCell id="GuvzhFM52KRBuSh5K_fH-26" style="edgeStyle=orthogonalEdgeStyle;rounded=0;sketch=1;hachureGap=4;jiggle=2;curveFitting=1;orthogonalLoop=1;jettySize=auto;html=1;exitX=1;exitY=0.5;exitDx=0;exitDy=0;fontFamily=Architects Daughter;fontSource=https%3A%2F%2Ffonts.googleapis.com%2Fcss%3Ffamily%3DArchitects%2BDaughter;fillColor=#d5e8d4;strokeColor=#82b366;" edge="1" parent="1" source="GuvzhFM52KRBuSh5K_fH-22" target="GuvzhFM52KRBuSh5K_fH-24">
          <mxGeometry relative="1" as="geometry" />
        </mxCell>
        <mxCell id="GuvzhFM52KRBuSh5K_fH-28" value="Failed" style="edgeLabel;html=1;align=center;verticalAlign=middle;resizable=0;points=[];sketch=1;hachureGap=4;jiggle=2;curveFitting=1;fontFamily=Architects Daughter;fontSource=https%3A%2F%2Ffonts.googleapis.com%2Fcss%3Ffamily%3DArchitects%2BDaughter;" vertex="1" connectable="0" parent="GuvzhFM52KRBuSh5K_fH-26">
          <mxGeometry x="0.3176" y="-2" relative="1" as="geometry">
            <mxPoint as="offset" />
          </mxGeometry>
        </mxCell>
        <mxCell id="GuvzhFM52KRBuSh5K_fH-22" value="Submit OTP" style="rhombus;whiteSpace=wrap;html=1;sketch=1;hachureGap=4;jiggle=2;curveFitting=1;fontFamily=Architects Daughter;fontSource=https%3A%2F%2Ffonts.googleapis.com%2Fcss%3Ffamily%3DArchitects%2BDaughter;" vertex="1" parent="1">
          <mxGeometry x="350" y="840" width="80" height="80" as="geometry" />
        </mxCell>
        <mxCell id="GuvzhFM52KRBuSh5K_fH-23" value="Clear Counter" style="rounded=1;whiteSpace=wrap;html=1;sketch=1;hachureGap=4;jiggle=2;curveFitting=1;fontFamily=Architects Daughter;fontSource=https%3A%2F%2Ffonts.googleapis.com%2Fcss%3Ffamily%3DArchitects%2BDaughter;" vertex="1" parent="1">
          <mxGeometry x="120" y="990" width="120" height="60" as="geometry" />
        </mxCell>
        <mxCell id="GuvzhFM52KRBuSh5K_fH-33" style="edgeStyle=orthogonalEdgeStyle;rounded=0;sketch=1;hachureGap=4;jiggle=2;curveFitting=1;orthogonalLoop=1;jettySize=auto;html=1;exitX=1;exitY=0.5;exitDx=0;exitDy=0;entryX=1;entryY=0.5;entryDx=0;entryDy=0;fontFamily=Architects Daughter;fontSource=https%3A%2F%2Ffonts.googleapis.com%2Fcss%3Ffamily%3DArchitects%2BDaughter;fillColor=#d5e8d4;strokeColor=#82b366;" edge="1" parent="1" source="GuvzhFM52KRBuSh5K_fH-24" target="GuvzhFM52KRBuSh5K_fH-19">
          <mxGeometry relative="1" as="geometry" />
        </mxCell>
        <mxCell id="GuvzhFM52KRBuSh5K_fH-24" value="Quota+1" style="rounded=1;whiteSpace=wrap;html=1;sketch=1;hachureGap=4;jiggle=2;curveFitting=1;fontFamily=Architects Daughter;fontSource=https%3A%2F%2Ffonts.googleapis.com%2Fcss%3Ffamily%3DArchitects%2BDaughter;" vertex="1" parent="1">
          <mxGeometry x="550" y="990" width="120" height="60" as="geometry" />
        </mxCell>
        <mxCell id="GuvzhFM52KRBuSh5K_fH-31" style="edgeStyle=orthogonalEdgeStyle;rounded=0;sketch=1;hachureGap=4;jiggle=2;curveFitting=1;orthogonalLoop=1;jettySize=auto;html=1;fontFamily=Architects Daughter;fontSource=https%3A%2F%2Ffonts.googleapis.com%2Fcss%3Ffamily%3DArchitects%2BDaughter;" edge="1" parent="1" source="GuvzhFM52KRBuSh5K_fH-29" target="GuvzhFM52KRBuSh5K_fH-32">
          <mxGeometry relative="1" as="geometry">
            <mxPoint x="380" y="1160" as="targetPoint" />
          </mxGeometry>
        </mxCell>
        <mxCell id="GuvzhFM52KRBuSh5K_fH-29" value="No Submit" style="rounded=1;whiteSpace=wrap;html=1;sketch=1;hachureGap=4;jiggle=2;curveFitting=1;fontFamily=Architects Daughter;fontSource=https%3A%2F%2Ffonts.googleapis.com%2Fcss%3Ffamily%3DArchitects%2BDaughter;" vertex="1" parent="1">
          <mxGeometry x="320" y="1000" width="120" height="60" as="geometry" />
        </mxCell>
        <mxCell id="GuvzhFM52KRBuSh5K_fH-30" style="edgeStyle=orthogonalEdgeStyle;rounded=0;sketch=1;hachureGap=4;jiggle=2;curveFitting=1;orthogonalLoop=1;jettySize=auto;html=1;exitX=0.5;exitY=1;exitDx=0;exitDy=0;entryX=0.558;entryY=-0.067;entryDx=0;entryDy=0;entryPerimeter=0;fontFamily=Architects Daughter;fontSource=https%3A%2F%2Ffonts.googleapis.com%2Fcss%3Ffamily%3DArchitects%2BDaughter;" edge="1" parent="1" source="GuvzhFM52KRBuSh5K_fH-22" target="GuvzhFM52KRBuSh5K_fH-29">
          <mxGeometry relative="1" as="geometry" />
        </mxCell>
        <mxCell id="GuvzhFM52KRBuSh5K_fH-32" value="Block Exponential&lt;br&gt;(11D, 2D, 4D)" style="rounded=1;whiteSpace=wrap;html=1;sketch=1;hachureGap=4;jiggle=2;curveFitting=1;fontFamily=Architects Daughter;fontSource=https%3A%2F%2Ffonts.googleapis.com%2Fcss%3Ffamily%3DArchitects%2BDaughter;" vertex="1" parent="1">
          <mxGeometry x="320" y="1130" width="120" height="60" as="geometry" />
        </mxCell>
        <mxCell id="oC6WpuPc2i9pV71od6hG-6" value="Scoring" style="rounded=1;whiteSpace=wrap;html=1;sketch=1;hachureGap=4;jiggle=2;curveFitting=1;fontFamily=Architects Daughter;fontSource=https%3A%2F%2Ffonts.googleapis.com%2Fcss%3Ffamily%3DArchitects%2BDaughter;" vertex="1" parent="1">
          <mxGeometry x="770" y="1130" width="120" height="60" as="geometry" />
        </mxCell>
        <mxCell id="oC6WpuPc2i9pV71od6hG-8" value="Counter" style="text;html=1;align=center;verticalAlign=middle;whiteSpace=wrap;rounded=0;fontFamily=Architects Daughter;fontSource=https%3A%2F%2Ffonts.googleapis.com%2Fcss%3Ffamily%3DArchitects%2BDaughter;fontStyle=1" vertex="1" parent="1">
          <mxGeometry x="520" y="700" width="60" height="30" as="geometry" />
        </mxCell>
        <mxCell id="oC6WpuPc2i9pV71od6hG-9" value="Redis" style="shape=parallelogram;perimeter=parallelogramPerimeter;whiteSpace=wrap;html=1;fixedSize=1;sketch=1;hachureGap=4;jiggle=2;curveFitting=1;fontFamily=Architects Daughter;fontSource=https%3A%2F%2Ffonts.googleapis.com%2Fcss%3Ffamily%3DArchitects%2BDaughter;fillColor=#f8cecc;strokeColor=#b85450;" vertex="1" parent="1">
          <mxGeometry x="30" y="590" width="60" height="30" as="geometry" />
        </mxCell>
        <mxCell id="oC6WpuPc2i9pV71od6hG-11" value="DB" style="shape=cylinder3;whiteSpace=wrap;html=1;boundedLbl=1;backgroundOutline=1;size=15;sketch=1;hachureGap=4;jiggle=2;curveFitting=1;fontFamily=Architects Daughter;fontSource=https%3A%2F%2Ffonts.googleapis.com%2Fcss%3Ffamily%3DArchitects%2BDaughter;fillColor=#e1d5e7;strokeColor=#9673a6;" vertex="1" parent="1">
          <mxGeometry x="40" y="640" width="40" height="60" as="geometry" />
        </mxCell>
      </root>
    </mxGraphModel>
  </diagram>
  <diagram id="YQwyuSphM50uppBqCQK7" name="Page-3">
    <mxGraphModel dx="2261" dy="854" grid="1" gridSize="10" guides="1" tooltips="1" connect="1" arrows="1" fold="1" page="1" pageScale="1" pageWidth="827" pageHeight="1169" math="0" shadow="0">
      <root>
        <mxCell id="0" />
        <mxCell id="1" parent="0" />
        <mxCell id="xpBGihlTEe0qHu6FOGGd-3" style="edgeStyle=orthogonalEdgeStyle;rounded=0;sketch=1;hachureGap=4;jiggle=2;curveFitting=1;orthogonalLoop=1;jettySize=auto;html=1;fontFamily=Architects Daughter;fontSource=https%3A%2F%2Ffonts.googleapis.com%2Fcss%3Ffamily%3DArchitects%2BDaughter;" edge="1" parent="1" source="n478aQ0fWmX0PB-tXsnh-1" target="xpBGihlTEe0qHu6FOGGd-1">
          <mxGeometry relative="1" as="geometry" />
        </mxCell>
        <mxCell id="xpBGihlTEe0qHu6FOGGd-5" value="Trigger Event" style="edgeLabel;html=1;align=center;verticalAlign=middle;resizable=0;points=[];sketch=1;hachureGap=4;jiggle=2;curveFitting=1;fontFamily=Architects Daughter;fontSource=https%3A%2F%2Ffonts.googleapis.com%2Fcss%3Ffamily%3DArchitects%2BDaughter;" vertex="1" connectable="0" parent="xpBGihlTEe0qHu6FOGGd-3">
          <mxGeometry x="-0.3774" y="-5" relative="1" as="geometry">
            <mxPoint as="offset" />
          </mxGeometry>
        </mxCell>
        <mxCell id="n478aQ0fWmX0PB-tXsnh-1" value="profile" style="rounded=1;whiteSpace=wrap;html=1;sketch=1;hachureGap=4;jiggle=2;curveFitting=1;fontFamily=Architects Daughter;fontSource=https%3A%2F%2Ffonts.googleapis.com%2Fcss%3Ffamily%3DArchitects%2BDaughter;" parent="1" vertex="1">
          <mxGeometry x="84" y="240" width="120" height="60" as="geometry" />
        </mxCell>
        <mxCell id="n478aQ0fWmX0PB-tXsnh-4" style="edgeStyle=orthogonalEdgeStyle;rounded=0;sketch=1;hachureGap=4;jiggle=2;curveFitting=1;orthogonalLoop=1;jettySize=auto;html=1;fontFamily=Architects Daughter;fontSource=https%3A%2F%2Ffonts.googleapis.com%2Fcss%3Ffamily%3DArchitects%2BDaughter;" parent="1" target="n478aQ0fWmX0PB-tXsnh-1" edge="1">
          <mxGeometry relative="1" as="geometry">
            <mxPoint x="-60" y="270" as="sourcePoint" />
          </mxGeometry>
        </mxCell>
        <mxCell id="n478aQ0fWmX0PB-tXsnh-5" value="Sign-up" style="edgeLabel;html=1;align=center;verticalAlign=middle;resizable=0;points=[];sketch=1;hachureGap=4;jiggle=2;curveFitting=1;fontFamily=Architects Daughter;fontSource=https%3A%2F%2Ffonts.googleapis.com%2Fcss%3Ffamily%3DArchitects%2BDaughter;" parent="n478aQ0fWmX0PB-tXsnh-4" vertex="1" connectable="0">
          <mxGeometry x="-0.1241" y="-6" relative="1" as="geometry">
            <mxPoint as="offset" />
          </mxGeometry>
        </mxCell>
        <mxCell id="xpBGihlTEe0qHu6FOGGd-4" style="edgeStyle=orthogonalEdgeStyle;rounded=0;sketch=1;hachureGap=4;jiggle=2;curveFitting=1;orthogonalLoop=1;jettySize=auto;html=1;fontFamily=Architects Daughter;fontSource=https%3A%2F%2Ffonts.googleapis.com%2Fcss%3Ffamily%3DArchitects%2BDaughter;" edge="1" parent="1" source="xpBGihlTEe0qHu6FOGGd-1" target="xpBGihlTEe0qHu6FOGGd-2">
          <mxGeometry relative="1" as="geometry" />
        </mxCell>
        <mxCell id="xpBGihlTEe0qHu6FOGGd-1" value="Event Trigger" style="rounded=1;whiteSpace=wrap;html=1;sketch=1;hachureGap=4;jiggle=2;curveFitting=1;fontFamily=Architects Daughter;fontSource=https%3A%2F%2Ffonts.googleapis.com%2Fcss%3Ffamily%3DArchitects%2BDaughter;" vertex="1" parent="1">
          <mxGeometry x="430" y="240" width="120" height="60" as="geometry" />
        </mxCell>
        <mxCell id="xpBGihlTEe0qHu6FOGGd-6" style="edgeStyle=orthogonalEdgeStyle;rounded=0;sketch=1;hachureGap=4;jiggle=2;curveFitting=1;orthogonalLoop=1;jettySize=auto;html=1;fontFamily=Architects Daughter;fontSource=https%3A%2F%2Ffonts.googleapis.com%2Fcss%3Ffamily%3DArchitects%2BDaughter;" edge="1" parent="1" source="xpBGihlTEe0qHu6FOGGd-2" target="xpBGihlTEe0qHu6FOGGd-7">
          <mxGeometry relative="1" as="geometry">
            <mxPoint x="60" y="430" as="targetPoint" />
          </mxGeometry>
        </mxCell>
        <mxCell id="xpBGihlTEe0qHu6FOGGd-8" value="Cash Coupon" style="edgeLabel;html=1;align=center;verticalAlign=middle;resizable=0;points=[];sketch=1;hachureGap=4;jiggle=2;curveFitting=1;fontFamily=Architects Daughter;fontSource=https%3A%2F%2Ffonts.googleapis.com%2Fcss%3Ffamily%3DArchitects%2BDaughter;" vertex="1" connectable="0" parent="xpBGihlTEe0qHu6FOGGd-6">
          <mxGeometry x="-0.134" y="1" relative="1" as="geometry">
            <mxPoint as="offset" />
          </mxGeometry>
        </mxCell>
        <mxCell id="xpBGihlTEe0qHu6FOGGd-2" value="Perx" style="ellipse;shape=cloud;whiteSpace=wrap;html=1;sketch=1;hachureGap=4;jiggle=2;curveFitting=1;fontFamily=Architects Daughter;fontSource=https%3A%2F%2Ffonts.googleapis.com%2Fcss%3Ffamily%3DArchitects%2BDaughter;" vertex="1" parent="1">
          <mxGeometry x="430" y="400" width="120" height="80" as="geometry" />
        </mxCell>
        <mxCell id="xpBGihlTEe0qHu6FOGGd-9" style="edgeStyle=orthogonalEdgeStyle;rounded=0;sketch=1;hachureGap=4;jiggle=2;curveFitting=1;orthogonalLoop=1;jettySize=auto;html=1;fontFamily=Architects Daughter;fontSource=https%3A%2F%2Ffonts.googleapis.com%2Fcss%3Ffamily%3DArchitects%2BDaughter;fillColor=#f8cecc;strokeColor=#b85450;" edge="1" parent="1" source="xpBGihlTEe0qHu6FOGGd-7" target="n478aQ0fWmX0PB-tXsnh-1">
          <mxGeometry relative="1" as="geometry">
            <Array as="points">
              <mxPoint x="13" y="250" />
              <mxPoint x="13" y="250" />
            </Array>
          </mxGeometry>
        </mxCell>
        <mxCell id="xpBGihlTEe0qHu6FOGGd-10" value="Delete Account" style="edgeLabel;html=1;align=center;verticalAlign=middle;resizable=0;points=[];sketch=1;hachureGap=4;jiggle=2;curveFitting=1;fontFamily=Architects Daughter;fontSource=https%3A%2F%2Ffonts.googleapis.com%2Fcss%3Ffamily%3DArchitects%2BDaughter;" vertex="1" connectable="0" parent="xpBGihlTEe0qHu6FOGGd-9">
          <mxGeometry x="-0.1888" y="2" relative="1" as="geometry">
            <mxPoint as="offset" />
          </mxGeometry>
        </mxCell>
        <mxCell id="xpBGihlTEe0qHu6FOGGd-7" value="" style="sketch=0;outlineConnect=0;fontColor=#232F3E;gradientColor=none;fillColor=#232F3D;strokeColor=none;dashed=0;verticalLabelPosition=bottom;verticalAlign=top;align=center;html=1;fontSize=12;fontStyle=0;aspect=fixed;pointerEvents=1;shape=mxgraph.aws4.mobile_client;hachureGap=4;jiggle=2;curveFitting=1;fontFamily=Architects Daughter;fontSource=https%3A%2F%2Ffonts.googleapis.com%2Fcss%3Ffamily%3DArchitects%2BDaughter;" vertex="1" parent="1">
          <mxGeometry x="-100" y="231" width="41" height="78" as="geometry" />
        </mxCell>
      </root>
    </mxGraphModel>
  </diagram>
</mxfile>
